HIERARCHY
ROOT Hips
{
    OFFSET 0.000000 0.000000 0.000000
    CHANNELS 6 Xposition Yposition Zposition Zrotation Xrotation Yrotation
    JOINT Chest
    {
        OFFSET -0.000000 0.083210 0.000000
        CHANNELS 3 Zrotation Xrotation Yrotation
        JOINT Chest2
        {
            OFFSET -0.000000 0.256334 0.000000
            CHANNELS 3 Zrotation Xrotation Yrotation
            JOINT Neck
            {
                OFFSET -0.000000 0.255281 0.023207
                CHANNELS 3 Zrotation Xrotation Yrotation
                JOINT Head
                {
                    OFFSET -0.000000 0.142065 -0.020295
                    CHANNELS 3 Zrotation Xrotation Yrotation
                    End Site
                    {
                        OFFSET -0.000000 0.202951 0.000000
                    }
                }
            }
            JOINT LeftCollar
            {
                OFFSET 0.041044 0.235234 -0.000041
                CHANNELS 3 Zrotation Xrotation Yrotation
                JOINT LeftShoulder
                {
                    OFFSET 0.117964 0.000000 0.000000
                    CHANNELS 3 Zrotation Xrotation Yrotation
                    JOINT LeftElbow
                    {
                        OFFSET 0.291248 0.000000 0.000000
                        CHANNELS 3 Zrotation Xrotation Yrotation
                        JOINT LeftWrist
                        {
                            OFFSET 0.245673 0.000000 0.000000
                            CHANNELS 3 Zrotation Xrotation Yrotation
                            End Site
                            {
                                OFFSET 0.152213 0.000000 0.000000
                            }
                        }
                    }
                }
            }
            JOINT RightCollar
            {
                OFFSET -0.040052 0.235234 -0.000041
                CHANNELS 3 Zrotation Xrotation Yrotation
                JOINT RightShoulder
                {
                    OFFSET -0.117964 0.000000 0.000000
                    CHANNELS 3 Zrotation Xrotation Yrotation
                    JOINT RightElbow
                    {
                        OFFSET -0.291248 0.000000 0.000000
                        CHANNELS 3 Zrotation Xrotation Yrotation
                        JOINT RightWrist
                        {
                            OFFSET -0.245673 0.000000 0.000000
                            CHANNELS 3 Zrotation Xrotation Yrotation
                            End Site
                            {
                                OFFSET -0.152213 0.000000 0.000000
                            }
                        }
                    }
                }
            }
        }
    }
    JOINT LeftHip
    {
        OFFSET 0.101475 0.000000 0.000000
        CHANNELS 3 Zrotation Xrotation Yrotation
        JOINT LeftKnee
        {
            OFFSET -0.000000 -0.446535 0.000000
            CHANNELS 3 Zrotation Xrotation Yrotation
            JOINT LeftAnkle
            {
                OFFSET -0.000000 -0.400037 0.000000
                CHANNELS 3 Zrotation Xrotation Yrotation
                JOINT LeftToe
                {
                    OFFSET -0.000000 -0.065959 0.152213
                    CHANNELS 3 Zrotation Xrotation Yrotation
                    End Site
                    {
                        OFFSET -0.000000 0.000000 0.040590
                    }
                }
            }
        }
    }
    JOINT RightHip
    {
        OFFSET -0.101475 0.000000 0.000000
        CHANNELS 3 Zrotation Xrotation Yrotation
        JOINT RightKnee
        {
            OFFSET -0.000000 -0.446535 0.000000
            CHANNELS 3 Zrotation Xrotation Yrotation
            JOINT RightAnkle
            {
                OFFSET -0.000000 -0.400037 0.000000
                CHANNELS 3 Zrotation Xrotation Yrotation
                JOINT RightToe
                {
                    OFFSET -0.000000 -0.065959 0.152213
                    CHANNELS 3 Zrotation Xrotation Yrotation
                    End Site
                    {
                        OFFSET -0.000000 0.000000 0.040590
                    }
                }
            }
        }
    }
}
MOTION
Frames:    5
Frame Time:    0.008333
0.216532    0.844931    -0.075282    -2.066104    -0.570575    1.005114    -1.036200    5.193760    -2.084723    0.050647    -2.845366    -0.709562    7.666156    7.007353    0.517222    -0.639898    -5.916417    -0.243267    44.250526    -13.619007    10.438482    -5.242226    -18.140110    -16.022861    55.041733    -37.557762    -41.156673    41.718346    -16.217850    3.749852    -33.628819    -10.958734    -9.665390    -5.233424    -15.916308    18.098907    -81.679749    -47.354637    29.273211    -15.951670    -23.076319    -26.960232    26.234934    -6.243374    -16.181374    6.135413    33.850796    -10.963399    -26.789600    -22.111444    -6.792988    0.004037    -7.556147    -0.202872    -19.906433    -8.696108    13.716035    -4.606408    40.767776    17.694618    26.108078    -25.602343    -8.024969    0.255025    -6.319162    3.159281    
0.217059    0.852938    -0.074178    -1.858864    -0.474244    1.165395    -1.383415    4.722011    -2.207245    0.291992    -2.505733    -0.748542    7.665342    6.970743    0.521755    -0.584691    -5.300131    -0.227353    43.556667    -13.702717    9.915007    -5.861184    -17.658682    -15.662806    52.023125    -38.060829    -41.308796    42.258774    -17.392710    5.754648    -33.044621    -11.185163    -8.896266    -4.078204    -15.481678    17.717915    -81.484390    -46.729038    27.601738    -16.633785    -23.564514    -27.515884    26.071686    -6.046478    -16.595781    5.295094    32.636143    -10.201962    -25.790451    -19.872345    -6.003749    -0.000339    -9.050749    0.048952    -19.983965    -8.299943    14.923579    -3.692807    39.639805    16.415380    25.804150    -23.710485    -9.006575    0.272936    -7.686091    2.945868    
0.217755    0.862352    -0.073022    -1.674554    -0.254789    1.390741    -1.569667    4.132435    -2.305974    0.221356    -2.204702    -0.783315    7.903837    6.983229    0.429231    -0.545926    -4.727308    -0.333476    43.001934    -13.710591    9.357918    -6.693867    -16.898268    -15.176358    49.070885    -38.418167    -41.316345    42.872959    -18.438463    7.586084    -31.941301    -11.065653    -8.146500    -3.180292    -15.010984    16.891001    -80.202103    -46.326614    26.278008    -17.113548    -24.513615    -27.845592    25.926514    -5.907431    -16.811617    4.492332    31.122696    -9.148628    -24.744486    -17.011908    -5.430044    0.002041    -10.749844    0.247255    -20.089676    -7.896218    15.921075    -2.833930    38.186447    15.150962    25.411251    -21.353329    -10.025599    0.277357    -8.983618    2.667346    
0.218781    0.873192    -0.071878    -1.607545    0.056832    1.540502    -1.542059    3.484928    -2.300708    0.092373    -1.988880    -0.780825    7.825523    7.180947    0.187237    -0.093273    -4.487358    -0.481205    41.872543    -13.412009    8.630232    -7.125925    -16.203449    -14.472500    45.829994    -38.640568    -41.396484    43.549759    -19.434988    9.174278    -30.775124    -10.734721    -7.533841    -2.345298    -14.438768    15.886654    -77.973206    -46.100128    25.394453    -17.335743    -25.637285    -28.241592    25.837170    -5.773859    -16.623491    3.865458    29.434092    -8.195720    -23.371380    -13.751322    -4.881671    0.011280    -12.644235    0.448546    -20.060061    -7.512961    16.552895    -2.235787    36.387936    13.932084    24.795040    -18.479662    -11.126931    0.279750    -10.063428    2.466433    
0.219685    0.885020    -0.070189    -1.304481    0.192073    1.980111    -1.887102    2.993142    -2.477211    0.209921    -1.735892    -0.838779    7.821017    7.095914    0.026746    -0.104758    -3.737411    -0.655402    40.509857    -13.113070    7.935719    -7.636360    -15.331063    -13.615975    42.395100    -38.608051    -41.713013    43.745712    -20.219406    10.434154    -29.261017    -9.954192    -6.943421    -2.013253    -14.122129    14.660368    -74.879547    -45.944824    24.866928    -16.687656    -27.003716    -28.379459    25.408714    -5.586351    -16.485218    3.412530    27.639378    -7.597995    -21.712622    -10.216558    -4.216323    0.034594    -14.647749    0.802121    -20.279495    -6.706861    16.704826    -1.781320    34.341759    12.809710    23.747192    -15.193722    -12.158386    0.240811    -11.145816    1.959514    
